<svg width="784" height="570" viewBox="0 0 784 570" fill="none" xmlns="http://www.w3.org/2000/svg">
<g id="developer 1" clip-path="url(#clip0_301_403)">
<circle id="fumaca" cx="710" cy="403" r="11" fill="white"/>
<path id="Vector" d="M606.245 55.1017C605.378 54.524 604.502 53.9762 603.635 53.4184C578.576 37.3976 551.717 24.3825 523.612 14.642L517.096 104.506H475.784V1.52396C473.184 0.986093 470.563 0.478106 467.943 0V104.506H418.849C391.823 104.506 365.903 93.7737 346.793 74.6701C327.682 55.5664 316.946 29.6563 316.946 2.63966C314.315 3.20741 311.705 3.81492 309.094 4.46235V104.506H269.108L262.9 18.8155C234.019 29.8879 206.6 44.4487 181.254 62.1738C180.815 62.4726 180.377 62.7813 179.949 63.0802C177.747 64.624 175.574 66.1978 173.412 67.7915V410.624H291.258L289.176 381.788L277.717 223.465H508.477L497.018 381.788L494.936 410.624H611.476V58.568C609.743 57.3927 607.999 56.2373 606.245 55.1017ZM309.094 197.318H275.824L269.676 112.355H309.094V197.318ZM467.943 197.318H412.064V195.635C412.064 194.826 411.904 194.025 411.594 193.277C411.284 192.53 410.83 191.851 410.257 191.279C409.684 190.707 409.004 190.254 408.256 189.945C407.507 189.636 406.705 189.478 405.896 189.479H381.603C380.795 189.479 379.994 189.638 379.246 189.947C378.499 190.257 377.82 190.71 377.248 191.282C376.676 191.853 376.223 192.532 375.914 193.279C375.604 194.026 375.445 194.827 375.445 195.635V197.318H316.946V112.355H467.943V197.318ZM475.785 197.318V112.355H516.528L510.38 197.318H475.785Z" fill="#222D34"/>
<path id="Vector_2" d="M0 432.577C8.65612 442.83 18.0187 452.466 28.0192 461.413L755.981 462.409C765.981 453.462 775.344 443.826 784 433.573L0 432.577Z" fill="#334248"/>
<path id="Vector_3" d="M493.654 340.244V425.609C493.655 426.697 494.088 427.74 494.857 428.51C495.627 429.279 496.67 429.711 497.759 429.712H624.308C625.396 429.711 626.44 429.279 627.209 428.51C627.979 427.74 628.411 426.697 628.412 425.609V340.244C628.41 339.157 627.976 338.115 627.207 337.347C626.438 336.579 625.395 336.147 624.308 336.145H497.759C496.671 336.147 495.629 336.579 494.859 337.347C494.09 338.115 493.657 339.157 493.654 340.244V340.244Z" fill="#3F3D56"/>
<g id="tela_notebook">
<g clip-path="url(#clip1_301_403)">
<rect x="496" y="339" width="130" height="88" rx="2" fill="#FF9900"/>
<path id="conteudo_tela" fill-rule="evenodd" clip-rule="evenodd" d="M522.37 301H539.981C540.84 301 541.536 301.696 541.536 302.555C541.536 303.414 540.84 304.11 539.981 304.11H522.37C521.511 304.11 520.814 303.414 520.814 302.555C520.814 301.696 521.511 301 522.37 301ZM516.389 301.259H513.556C512.696 301.259 512 301.955 512 302.814C512 303.673 512.696 304.369 513.556 304.369H516.389C517.248 304.369 517.944 303.673 517.944 302.814C517.944 301.955 517.248 301.259 516.389 301.259ZM523.153 357.062H540.764C541.623 357.062 542.319 357.759 542.319 358.617C542.319 359.476 541.623 360.172 540.764 360.172H523.153C522.294 360.172 521.598 359.476 521.598 358.617C521.598 357.759 522.294 357.062 523.153 357.062ZM514.339 357.322H517.172C518.031 357.322 518.728 358.018 518.728 358.877C518.728 359.735 518.031 360.432 517.172 360.432H514.339C513.48 360.432 512.783 359.735 512.783 358.877C512.783 358.018 513.48 357.322 514.339 357.322ZM546.745 357.322H549.578C550.438 357.322 551.134 358.018 551.134 358.877C551.134 359.735 550.438 360.432 549.578 360.432H546.745C545.886 360.432 545.189 359.735 545.189 358.877C545.189 358.018 545.886 357.322 546.745 357.322ZM558.76 357.322H555.927C555.068 357.322 554.371 358.018 554.371 358.877C554.371 359.735 555.068 360.432 555.927 360.432H558.76C559.619 360.432 560.316 359.735 560.316 358.877C560.316 358.018 559.619 357.322 558.76 357.322ZM583.973 357.062H566.362C565.503 357.062 564.807 357.759 564.807 358.617C564.807 359.476 565.503 360.172 566.362 360.172H583.973C584.832 360.172 585.528 359.476 585.528 358.617C585.528 357.759 584.832 357.062 583.973 357.062ZM522.98 364.341H525.814C526.673 364.341 527.369 365.037 527.369 365.896C527.369 366.754 526.673 367.45 525.814 367.45H522.98C522.121 367.45 521.425 366.754 521.425 365.896C521.425 365.037 522.121 364.341 522.98 364.341ZM558.22 364.341H555.387C554.527 364.341 553.831 365.037 553.831 365.896C553.831 366.754 554.527 367.45 555.387 367.45H558.22C559.079 367.45 559.776 366.754 559.776 365.896C559.776 365.037 559.079 364.341 558.22 364.341ZM564.568 364.341H567.402C568.261 364.341 568.957 365.037 568.957 365.896C568.957 366.754 568.261 367.45 567.402 367.45H564.568C563.709 367.45 563.013 366.754 563.013 365.896C563.013 365.037 563.709 364.341 564.568 364.341ZM549.405 364.081H531.795C530.936 364.081 530.239 364.777 530.239 365.636C530.239 366.495 530.936 367.191 531.795 367.191H549.405C550.264 367.191 550.961 366.495 550.961 365.636C550.961 364.777 550.264 364.081 549.405 364.081ZM575.004 364.081H592.614C593.473 364.081 594.17 364.777 594.17 365.636C594.17 366.495 593.473 367.191 592.614 367.191H575.004C574.145 367.191 573.448 366.495 573.448 365.636C573.448 364.777 574.145 364.081 575.004 364.081ZM534.455 371.359H531.622C530.763 371.359 530.066 372.056 530.066 372.914C530.066 373.773 530.763 374.469 531.622 374.469H534.455C535.314 374.469 536.011 373.773 536.011 372.914C536.011 372.056 535.314 371.359 534.455 371.359ZM564.028 371.359H566.862C567.721 371.359 568.417 372.056 568.417 372.914C568.417 373.773 567.721 374.469 566.862 374.469H564.028C563.169 374.469 562.473 373.773 562.473 372.914C562.473 372.056 563.169 371.359 564.028 371.359ZM576.043 371.359H573.21C572.351 371.359 571.654 372.056 571.654 372.914C571.654 373.773 572.351 374.469 573.21 374.469H576.043C576.902 374.469 577.599 373.773 577.599 372.914C577.599 372.056 576.902 371.359 576.043 371.359ZM540.436 371.1H558.047C558.906 371.1 559.602 371.796 559.602 372.655C559.602 373.514 558.906 374.21 558.047 374.21H540.436C539.577 374.21 538.881 373.514 538.881 372.655C538.881 371.796 539.577 371.1 540.436 371.1ZM601.256 371.1H583.645C582.786 371.1 582.09 371.796 582.09 372.655C582.09 373.514 582.786 374.21 583.645 374.21H601.256C602.115 374.21 602.811 373.514 602.811 372.655C602.811 371.796 602.115 371.1 601.256 371.1ZM540.264 378.378H543.097C543.956 378.378 544.652 379.074 544.652 379.933C544.652 380.792 543.956 381.488 543.097 381.488H540.264C539.404 381.488 538.708 380.792 538.708 379.933C538.708 379.074 539.404 378.378 540.264 378.378ZM575.503 378.378H572.67C571.811 378.378 571.114 379.074 571.114 379.933C571.114 380.792 571.811 381.488 572.67 381.488H575.503C576.362 381.488 577.059 380.792 577.059 379.933C577.059 379.074 576.362 378.378 575.503 378.378ZM581.852 378.378H584.686C585.545 378.378 586.241 379.074 586.241 379.933C586.241 380.792 585.545 381.488 584.686 381.488H581.852C580.993 381.488 580.297 380.792 580.297 379.933C580.297 379.074 580.993 378.378 581.852 378.378ZM566.689 378.119H549.078C548.219 378.119 547.522 378.815 547.522 379.674C547.522 380.533 548.219 381.229 549.078 381.229H566.689C567.548 381.229 568.244 380.533 568.244 379.674C568.244 378.815 567.548 378.119 566.689 378.119ZM546.745 406.288H549.578C550.438 406.288 551.134 406.984 551.134 407.843C551.134 408.702 550.438 409.398 549.578 409.398H546.745C545.886 409.398 545.189 408.702 545.189 407.843C545.189 406.984 545.886 406.288 546.745 406.288ZM558.76 406.288H555.927C555.068 406.288 554.371 406.984 554.371 407.843C554.371 408.702 555.068 409.398 555.927 409.398H558.76C559.619 409.398 560.316 408.702 560.316 407.843C560.316 406.984 559.619 406.288 558.76 406.288ZM566.362 406.547H583.973C584.832 406.547 585.528 407.244 585.528 408.102C585.528 408.961 584.832 409.657 583.973 409.657H566.362C565.503 409.657 564.807 408.961 564.807 408.102C564.807 407.244 565.503 406.547 566.362 406.547ZM517.172 406.288H514.339C513.48 406.288 512.783 406.984 512.783 407.843C512.783 408.702 513.48 409.398 514.339 409.398H517.172C518.031 409.398 518.728 408.702 518.728 407.843C518.728 406.984 518.031 406.288 517.172 406.288ZM523.153 406.547H540.764C541.623 406.547 542.319 407.244 542.319 408.102C542.319 408.961 541.623 409.657 540.764 409.657H523.153C522.294 409.657 521.598 408.961 521.598 408.102C521.598 407.244 522.294 406.547 523.153 406.547ZM525.814 399.269H522.98C522.121 399.269 521.425 399.966 521.425 400.824C521.425 401.683 522.121 402.379 522.98 402.379H525.814C526.673 402.379 527.369 401.683 527.369 400.824C527.369 399.966 526.673 399.269 525.814 399.269ZM555.387 399.269H558.22C559.079 399.269 559.776 399.966 559.776 400.824C559.776 401.683 559.079 402.379 558.22 402.379H555.387C554.527 402.379 553.831 401.683 553.831 400.824C553.831 399.966 554.527 399.269 555.387 399.269ZM567.402 399.269H564.568C563.709 399.269 563.013 399.966 563.013 400.824C563.013 401.683 563.709 402.379 564.568 402.379H567.402C568.261 402.379 568.957 401.683 568.957 400.824C568.957 399.966 568.261 399.269 567.402 399.269ZM531.795 399.529H549.405C550.264 399.529 550.961 400.225 550.961 401.084C550.961 401.942 550.264 402.638 549.405 402.638H531.795C530.936 402.638 530.239 401.942 530.239 401.084C530.239 400.225 530.936 399.529 531.795 399.529ZM534.455 392.25H531.622C530.763 392.25 530.066 392.947 530.066 393.805C530.066 394.664 530.763 395.36 531.622 395.36H534.455C535.314 395.36 536.011 394.664 536.011 393.805C536.011 392.947 535.314 392.25 534.455 392.25ZM564.028 392.25H566.862C567.721 392.25 568.417 392.947 568.417 393.805C568.417 394.664 567.721 395.36 566.862 395.36H564.028C563.169 395.36 562.473 394.664 562.473 393.805C562.473 392.947 563.169 392.25 564.028 392.25ZM576.043 392.25H573.21C572.351 392.25 571.654 392.947 571.654 393.805C571.654 394.664 572.351 395.36 573.21 395.36H576.043C576.902 395.36 577.599 394.664 577.599 393.805C577.599 392.947 576.902 392.25 576.043 392.25ZM540.436 392.51H558.047C558.906 392.51 559.602 393.206 559.602 394.065C559.602 394.923 558.906 395.62 558.047 395.62H540.436C539.577 395.62 538.881 394.923 538.881 394.065C538.881 393.206 539.577 392.51 540.436 392.51ZM543.097 385.232H540.264C539.404 385.232 538.708 385.928 538.708 386.787C538.708 387.645 539.404 388.341 540.264 388.341H543.097C543.956 388.341 544.652 387.645 544.652 386.787C544.652 385.928 543.956 385.232 543.097 385.232ZM572.67 385.232H575.503C576.362 385.232 577.059 385.928 577.059 386.787C577.059 387.645 576.362 388.341 575.503 388.341H572.67C571.811 388.341 571.114 387.645 571.114 386.787C571.114 385.928 571.811 385.232 572.67 385.232ZM584.686 385.232H581.852C580.993 385.232 580.297 385.928 580.297 386.787C580.297 387.645 580.993 388.341 581.852 388.341H584.686C585.545 388.341 586.241 387.645 586.241 386.787C586.241 385.928 585.545 385.232 584.686 385.232ZM549.078 385.491H566.689C567.548 385.491 568.244 386.187 568.244 387.046C568.244 387.905 567.548 388.601 566.689 388.601H549.078C548.219 388.601 547.522 387.905 547.522 387.046C547.522 386.187 548.219 385.491 549.078 385.491ZM516.389 472.322H513.556C512.696 472.322 512 473.018 512 473.877C512 474.735 512.696 475.432 513.556 475.432H516.389C517.248 475.432 517.944 474.735 517.944 473.877C517.944 473.018 517.248 472.322 516.389 472.322ZM545.962 472.322H548.795C549.654 472.322 550.351 473.018 550.351 473.877C550.351 474.735 549.654 475.432 548.795 475.432H545.962C545.103 475.432 544.406 474.735 544.406 473.877C544.406 473.018 545.103 472.322 545.962 472.322ZM557.977 472.322H555.143C554.284 472.322 553.588 473.018 553.588 473.877C553.588 474.735 554.284 475.432 555.143 475.432H557.977C558.836 475.432 559.532 474.735 559.532 473.877C559.532 473.018 558.836 472.322 557.977 472.322ZM522.37 472.062H539.981C540.84 472.062 541.536 472.759 541.536 473.617C541.536 474.476 540.84 475.172 539.981 475.172H522.37C521.511 475.172 520.814 474.476 520.814 473.617C520.814 472.759 521.511 472.062 522.37 472.062ZM583.19 472.062H565.579C564.72 472.062 564.023 472.759 564.023 473.617C564.023 474.476 564.72 475.172 565.579 475.172H583.19C584.049 475.172 584.745 474.476 584.745 473.617C584.745 472.759 584.049 472.062 583.19 472.062ZM522.197 479.341H525.031C525.89 479.341 526.586 480.037 526.586 480.896C526.586 481.754 525.89 482.45 525.031 482.45H522.197C521.338 482.45 520.642 481.754 520.642 480.896C520.642 480.037 521.338 479.341 522.197 479.341ZM557.437 479.341H554.603C553.744 479.341 553.048 480.037 553.048 480.896C553.048 481.754 553.744 482.45 554.603 482.45H557.437C558.296 482.45 558.992 481.754 558.992 480.896C558.992 480.037 558.296 479.341 557.437 479.341ZM563.785 479.341H566.618C567.478 479.341 568.174 480.037 568.174 480.896C568.174 481.754 567.478 482.45 566.618 482.45H563.785C562.926 482.45 562.229 481.754 562.229 480.896C562.229 480.037 562.926 479.341 563.785 479.341ZM548.622 479.081H531.012C530.152 479.081 529.456 479.777 529.456 480.636C529.456 481.495 530.152 482.191 531.012 482.191H548.622C549.481 482.191 550.178 481.495 550.178 480.636C550.178 479.777 549.481 479.081 548.622 479.081ZM574.221 479.081H591.831C592.69 479.081 593.387 479.777 593.387 480.636C593.387 481.495 592.69 482.191 591.831 482.191H574.221C573.361 482.191 572.665 481.495 572.665 480.636C572.665 479.777 573.361 479.081 574.221 479.081ZM533.672 486.359H530.839C529.98 486.359 529.283 487.056 529.283 487.914C529.283 488.773 529.98 489.469 530.839 489.469H533.672C534.531 489.469 535.228 488.773 535.228 487.914C535.228 487.056 534.531 486.359 533.672 486.359ZM563.245 486.359H566.078C566.937 486.359 567.634 487.056 567.634 487.914C567.634 488.773 566.937 489.469 566.078 489.469H563.245C562.386 489.469 561.689 488.773 561.689 487.914C561.689 487.056 562.386 486.359 563.245 486.359ZM575.26 486.359H572.427C571.568 486.359 570.871 487.056 570.871 487.914C570.871 488.773 571.568 489.469 572.427 489.469H575.26C576.119 489.469 576.816 488.773 576.816 487.914C576.816 487.056 576.119 486.359 575.26 486.359ZM539.653 486.1H557.264C558.123 486.1 558.819 486.796 558.819 487.655C558.819 488.514 558.123 489.21 557.264 489.21H539.653C538.794 489.21 538.098 488.514 538.098 487.655C538.098 486.796 538.794 486.1 539.653 486.1ZM600.473 486.1H582.862C582.003 486.1 581.307 486.796 581.307 487.655C581.307 488.514 582.003 489.21 582.862 489.21H600.473C601.332 489.21 602.028 488.514 602.028 487.655C602.028 486.796 601.332 486.1 600.473 486.1ZM539.48 493.378H542.314C543.173 493.378 543.869 494.074 543.869 494.933C543.869 495.792 543.173 496.488 542.314 496.488H539.48C538.621 496.488 537.925 495.792 537.925 494.933C537.925 494.074 538.621 493.378 539.48 493.378ZM574.72 493.378H571.887C571.027 493.378 570.331 494.074 570.331 494.933C570.331 495.792 571.027 496.488 571.887 496.488H574.72C575.579 496.488 576.275 495.792 576.275 494.933C576.275 494.074 575.579 493.378 574.72 493.378ZM581.069 493.378H583.903C584.762 493.378 585.458 494.074 585.458 494.933C585.458 495.792 584.762 496.488 583.903 496.488H581.069C580.21 496.488 579.514 495.792 579.514 494.933C579.514 494.074 580.21 493.378 581.069 493.378ZM565.905 493.119H548.295C547.436 493.119 546.739 493.815 546.739 494.674C546.739 495.533 547.436 496.229 548.295 496.229H565.905C566.764 496.229 567.461 495.533 567.461 494.674C567.461 493.815 566.764 493.119 565.905 493.119ZM545.962 521.288H548.795C549.654 521.288 550.351 521.984 550.351 522.843C550.351 523.702 549.654 524.398 548.795 524.398H545.962C545.103 524.398 544.406 523.702 544.406 522.843C544.406 521.984 545.103 521.288 545.962 521.288ZM557.977 521.288H555.143C554.284 521.288 553.588 521.984 553.588 522.843C553.588 523.702 554.284 524.398 555.143 524.398H557.977C558.836 524.398 559.532 523.702 559.532 522.843C559.532 521.984 558.836 521.288 557.977 521.288ZM565.579 521.547H583.19C584.049 521.547 584.745 522.244 584.745 523.102C584.745 523.961 584.049 524.657 583.19 524.657H565.579C564.72 524.657 564.023 523.961 564.023 523.102C564.023 522.244 564.72 521.547 565.579 521.547ZM516.389 521.288H513.556C512.696 521.288 512 521.984 512 522.843C512 523.702 512.696 524.398 513.556 524.398H516.389C517.248 524.398 517.944 523.702 517.944 522.843C517.944 521.984 517.248 521.288 516.389 521.288ZM522.37 521.547H539.981C540.84 521.547 541.536 522.244 541.536 523.102C541.536 523.961 540.84 524.657 539.981 524.657H522.37C521.511 524.657 520.814 523.961 520.814 523.102C520.814 522.244 521.511 521.547 522.37 521.547ZM525.031 514.269H522.197C521.338 514.269 520.642 514.966 520.642 515.824C520.642 516.683 521.338 517.379 522.197 517.379H525.031C525.89 517.379 526.586 516.683 526.586 515.824C526.586 514.966 525.89 514.269 525.031 514.269ZM554.603 514.269H557.437C558.296 514.269 558.992 514.966 558.992 515.824C558.992 516.683 558.296 517.379 557.437 517.379H554.603C553.744 517.379 553.048 516.683 553.048 515.824C553.048 514.966 553.744 514.269 554.603 514.269ZM566.618 514.269H563.785C562.926 514.269 562.229 514.966 562.229 515.824C562.229 516.683 562.926 517.379 563.785 517.379H566.618C567.478 517.379 568.174 516.683 568.174 515.824C568.174 514.966 567.478 514.269 566.618 514.269ZM531.012 514.529H548.622C549.481 514.529 550.178 515.225 550.178 516.084C550.178 516.942 549.481 517.638 548.622 517.638H531.012C530.152 517.638 529.456 516.942 529.456 516.084C529.456 515.225 530.152 514.529 531.012 514.529ZM533.672 507.25H530.839C529.98 507.25 529.283 507.947 529.283 508.805C529.283 509.664 529.98 510.36 530.839 510.36H533.672C534.531 510.36 535.228 509.664 535.228 508.805C535.228 507.947 534.531 507.25 533.672 507.25ZM563.245 507.25H566.078C566.937 507.25 567.634 507.947 567.634 508.805C567.634 509.664 566.937 510.36 566.078 510.36H563.245C562.386 510.36 561.689 509.664 561.689 508.805C561.689 507.947 562.386 507.25 563.245 507.25ZM575.26 507.25H572.427C571.568 507.25 570.871 507.947 570.871 508.805C570.871 509.664 571.568 510.36 572.427 510.36H575.26C576.119 510.36 576.816 509.664 576.816 508.805C576.816 507.947 576.119 507.25 575.26 507.25ZM539.653 507.51H557.264C558.123 507.51 558.819 508.206 558.819 509.065C558.819 509.923 558.123 510.62 557.264 510.62H539.653C538.794 510.62 538.098 509.923 538.098 509.065C538.098 508.206 538.794 507.51 539.653 507.51ZM542.314 500.232H539.48C538.621 500.232 537.925 500.928 537.925 501.787C537.925 502.645 538.621 503.341 539.48 503.341H542.314C543.173 503.341 543.869 502.645 543.869 501.787C543.869 500.928 543.173 500.232 542.314 500.232ZM571.887 500.232H574.72C575.579 500.232 576.275 500.928 576.275 501.787C576.275 502.645 575.579 503.341 574.72 503.341H571.887C571.027 503.341 570.331 502.645 570.331 501.787C570.331 500.928 571.027 500.232 571.887 500.232ZM583.903 500.232H581.069C580.21 500.232 579.514 500.928 579.514 501.787C579.514 502.645 580.21 503.341 581.069 503.341H583.903C584.762 503.341 585.458 502.645 585.458 501.787C585.458 500.928 584.762 500.232 583.903 500.232ZM548.295 500.491H565.905C566.764 500.491 567.461 501.187 567.461 502.046C567.461 502.905 566.764 503.601 565.905 503.601H548.295C547.436 503.601 546.739 502.905 546.739 502.046C546.739 501.187 547.436 500.491 548.295 500.491ZM545.962 301.259H548.795C549.654 301.259 550.351 301.955 550.351 302.814C550.351 303.673 549.654 304.369 548.795 304.369H545.962C545.103 304.369 544.406 303.673 544.406 302.814C544.406 301.955 545.103 301.259 545.962 301.259ZM557.977 301.259H555.143C554.284 301.259 553.588 301.955 553.588 302.814C553.588 303.673 554.284 304.369 555.143 304.369H557.977C558.836 304.369 559.532 303.673 559.532 302.814C559.532 301.955 558.836 301.259 557.977 301.259ZM583.19 301H565.579C564.72 301 564.023 301.696 564.023 302.555C564.023 303.414 564.72 304.11 565.579 304.11H583.19C584.049 304.11 584.745 303.414 584.745 302.555C584.745 301.696 584.049 301 583.19 301ZM522.197 308.278H525.031C525.89 308.278 526.586 308.974 526.586 309.833C526.586 310.692 525.89 311.388 525.031 311.388H522.197C521.338 311.388 520.642 310.692 520.642 309.833C520.642 308.974 521.338 308.278 522.197 308.278ZM557.437 308.278H554.603C553.744 308.278 553.048 308.974 553.048 309.833C553.048 310.692 553.744 311.388 554.603 311.388H557.437C558.296 311.388 558.992 310.692 558.992 309.833C558.992 308.974 558.296 308.278 557.437 308.278ZM563.785 308.278H566.618C567.478 308.278 568.174 308.974 568.174 309.833C568.174 310.692 567.478 311.388 566.618 311.388H563.785C562.926 311.388 562.229 310.692 562.229 309.833C562.229 308.974 562.926 308.278 563.785 308.278ZM548.622 308.019H531.012C530.152 308.019 529.456 308.715 529.456 309.574C529.456 310.432 530.152 311.129 531.012 311.129H548.622C549.481 311.129 550.178 310.432 550.178 309.574C550.178 308.715 549.481 308.019 548.622 308.019ZM574.221 308.019H591.831C592.69 308.019 593.387 308.715 593.387 309.574C593.387 310.432 592.69 311.129 591.831 311.129H574.221C573.361 311.129 572.665 310.432 572.665 309.574C572.665 308.715 573.361 308.019 574.221 308.019ZM533.672 315.297H530.839C529.98 315.297 529.283 315.993 529.283 316.852C529.283 317.711 529.98 318.407 530.839 318.407H533.672C534.531 318.407 535.228 317.711 535.228 316.852C535.228 315.993 534.531 315.297 533.672 315.297ZM563.245 315.297H566.078C566.937 315.297 567.634 315.993 567.634 316.852C567.634 317.711 566.937 318.407 566.078 318.407H563.245C562.386 318.407 561.689 317.711 561.689 316.852C561.689 315.993 562.386 315.297 563.245 315.297ZM575.26 315.297H572.427C571.568 315.297 570.871 315.993 570.871 316.852C570.871 317.711 571.568 318.407 572.427 318.407H575.26C576.119 318.407 576.816 317.711 576.816 316.852C576.816 315.993 576.119 315.297 575.26 315.297ZM539.653 315.038H557.264C558.123 315.038 558.819 315.734 558.819 316.593C558.819 317.451 558.123 318.148 557.264 318.148H539.653C538.794 318.148 538.098 317.451 538.098 316.593C538.098 315.734 538.794 315.038 539.653 315.038ZM600.473 315.038H582.862C582.003 315.038 581.307 315.734 581.307 316.593C581.307 317.451 582.003 318.148 582.862 318.148H600.473C601.332 318.148 602.028 317.451 602.028 316.593C602.028 315.734 601.332 315.038 600.473 315.038ZM539.48 322.316H542.314C543.173 322.316 543.869 323.012 543.869 323.871C543.869 324.729 543.173 325.426 542.314 325.426H539.48C538.621 325.426 537.925 324.729 537.925 323.871C537.925 323.012 538.621 322.316 539.48 322.316ZM574.72 322.316H571.887C571.027 322.316 570.331 323.012 570.331 323.871C570.331 324.729 571.027 325.426 571.887 325.426H574.72C575.579 325.426 576.275 324.729 576.275 323.871C576.275 323.012 575.579 322.316 574.72 322.316ZM581.069 322.316H583.903C584.762 322.316 585.458 323.012 585.458 323.871C585.458 324.729 584.762 325.426 583.903 325.426H581.069C580.21 325.426 579.514 324.729 579.514 323.871C579.514 323.012 580.21 322.316 581.069 322.316ZM565.905 322.057H548.295C547.436 322.057 546.739 322.753 546.739 323.611C546.739 324.47 547.436 325.166 548.295 325.166H565.905C566.764 325.166 567.461 324.47 567.461 323.611C567.461 322.753 566.764 322.057 565.905 322.057ZM545.962 350.226H548.795C549.654 350.226 550.351 350.922 550.351 351.781C550.351 352.639 549.654 353.336 548.795 353.336H545.962C545.103 353.336 544.406 352.639 544.406 351.781C544.406 350.922 545.103 350.226 545.962 350.226ZM557.977 350.226H555.143C554.284 350.226 553.588 350.922 553.588 351.781C553.588 352.639 554.284 353.336 555.143 353.336H557.977C558.836 353.336 559.532 352.639 559.532 351.781C559.532 350.922 558.836 350.226 557.977 350.226ZM565.579 350.485H583.19C584.049 350.485 584.745 351.181 584.745 352.04C584.745 352.899 584.049 353.595 583.19 353.595H565.579C564.72 353.595 564.023 352.899 564.023 352.04C564.023 351.181 564.72 350.485 565.579 350.485ZM516.389 350.226H513.556C512.696 350.226 512 350.922 512 351.781C512 352.639 512.696 353.336 513.556 353.336H516.389C517.248 353.336 517.944 352.639 517.944 351.781C517.944 350.922 517.248 350.226 516.389 350.226ZM522.37 350.485H539.981C540.84 350.485 541.536 351.181 541.536 352.04C541.536 352.899 540.84 353.595 539.981 353.595H522.37C521.511 353.595 520.814 352.899 520.814 352.04C520.814 351.181 521.511 350.485 522.37 350.485ZM525.031 343.207H522.197C521.338 343.207 520.642 343.903 520.642 344.762C520.642 345.621 521.338 346.317 522.197 346.317H525.031C525.89 346.317 526.586 345.621 526.586 344.762C526.586 343.903 525.89 343.207 525.031 343.207ZM554.603 343.207H557.437C558.296 343.207 558.992 343.903 558.992 344.762C558.992 345.621 558.296 346.317 557.437 346.317H554.603C553.744 346.317 553.048 345.621 553.048 344.762C553.048 343.903 553.744 343.207 554.603 343.207ZM566.618 343.207H563.785C562.926 343.207 562.229 343.903 562.229 344.762C562.229 345.621 562.926 346.317 563.785 346.317H566.618C567.478 346.317 568.174 345.621 568.174 344.762C568.174 343.903 567.478 343.207 566.618 343.207ZM531.012 343.466H548.622C549.481 343.466 550.178 344.162 550.178 345.021C550.178 345.88 549.481 346.576 548.622 346.576H531.012C530.152 346.576 529.456 345.88 529.456 345.021C529.456 344.162 530.152 343.466 531.012 343.466ZM533.672 336.188H530.839C529.98 336.188 529.283 336.884 529.283 337.743C529.283 338.602 529.98 339.298 530.839 339.298H533.672C534.531 339.298 535.228 338.602 535.228 337.743C535.228 336.884 534.531 336.188 533.672 336.188ZM563.245 336.188H566.078C566.937 336.188 567.634 336.884 567.634 337.743C567.634 338.602 566.937 339.298 566.078 339.298H563.245C562.386 339.298 561.689 338.602 561.689 337.743C561.689 336.884 562.386 336.188 563.245 336.188ZM575.26 336.188H572.427C571.568 336.188 570.871 336.884 570.871 337.743C570.871 338.602 571.568 339.298 572.427 339.298H575.26C576.119 339.298 576.816 338.602 576.816 337.743C576.816 336.884 576.119 336.188 575.26 336.188ZM539.653 336.447H557.264C558.123 336.447 558.819 337.143 558.819 338.002C558.819 338.861 558.123 339.557 557.264 339.557H539.653C538.794 339.557 538.098 338.861 538.098 338.002C538.098 337.143 538.794 336.447 539.653 336.447ZM542.314 329.169H539.48C538.621 329.169 537.925 329.865 537.925 330.724C537.925 331.583 538.621 332.279 539.48 332.279H542.314C543.173 332.279 543.869 331.583 543.869 330.724C543.869 329.865 543.173 329.169 542.314 329.169ZM571.887 329.169H574.72C575.579 329.169 576.275 329.865 576.275 330.724C576.275 331.583 575.579 332.279 574.72 332.279H571.887C571.027 332.279 570.331 331.583 570.331 330.724C570.331 329.865 571.027 329.169 571.887 329.169ZM583.903 329.169H581.069C580.21 329.169 579.514 329.865 579.514 330.724C579.514 331.583 580.21 332.279 581.069 332.279H583.903C584.762 332.279 585.458 331.583 585.458 330.724C585.458 329.865 584.762 329.169 583.903 329.169ZM548.295 329.428H565.905C566.764 329.428 567.461 330.125 567.461 330.983C567.461 331.842 566.764 332.538 565.905 332.538H548.295C547.436 332.538 546.739 331.842 546.739 330.983C546.739 330.125 547.436 329.428 548.295 329.428ZM516.389 415.259H513.556C512.696 415.259 512 415.955 512 416.814C512 417.673 512.696 418.369 513.556 418.369H516.389C517.248 418.369 517.944 417.673 517.944 416.814C517.944 415.955 517.248 415.259 516.389 415.259ZM545.962 415.259H548.795C549.654 415.259 550.351 415.955 550.351 416.814C550.351 417.673 549.654 418.369 548.795 418.369H545.962C545.103 418.369 544.406 417.673 544.406 416.814C544.406 415.955 545.103 415.259 545.962 415.259ZM557.977 415.259H555.143C554.284 415.259 553.588 415.955 553.588 416.814C553.588 417.673 554.284 418.369 555.143 418.369H557.977C558.836 418.369 559.532 417.673 559.532 416.814C559.532 415.955 558.836 415.259 557.977 415.259ZM522.37 415H539.981C540.84 415 541.536 415.696 541.536 416.555C541.536 417.414 540.84 418.11 539.981 418.11H522.37C521.511 418.11 520.814 417.414 520.814 416.555C520.814 415.696 521.511 415 522.37 415ZM583.19 415H565.579C564.72 415 564.023 415.696 564.023 416.555C564.023 417.414 564.72 418.11 565.579 418.11H583.19C584.049 418.11 584.745 417.414 584.745 416.555C584.745 415.696 584.049 415 583.19 415ZM522.197 422.278H525.031C525.89 422.278 526.586 422.974 526.586 423.833C526.586 424.692 525.89 425.388 525.031 425.388H522.197C521.338 425.388 520.642 424.692 520.642 423.833C520.642 422.974 521.338 422.278 522.197 422.278ZM557.437 422.278H554.603C553.744 422.278 553.048 422.974 553.048 423.833C553.048 424.692 553.744 425.388 554.603 425.388H557.437C558.296 425.388 558.992 424.692 558.992 423.833C558.992 422.974 558.296 422.278 557.437 422.278ZM563.785 422.278H566.618C567.478 422.278 568.174 422.974 568.174 423.833C568.174 424.692 567.478 425.388 566.618 425.388H563.785C562.926 425.388 562.229 424.692 562.229 423.833C562.229 422.974 562.926 422.278 563.785 422.278ZM548.622 422.019H531.012C530.152 422.019 529.456 422.715 529.456 423.574C529.456 424.432 530.152 425.129 531.012 425.129H548.622C549.481 425.129 550.178 424.432 550.178 423.574C550.178 422.715 549.481 422.019 548.622 422.019ZM574.221 422.019H591.831C592.69 422.019 593.387 422.715 593.387 423.574C593.387 424.432 592.69 425.129 591.831 425.129H574.221C573.361 425.129 572.665 424.432 572.665 423.574C572.665 422.715 573.361 422.019 574.221 422.019ZM533.672 429.297H530.839C529.98 429.297 529.283 429.993 529.283 430.852C529.283 431.711 529.98 432.407 530.839 432.407H533.672C534.531 432.407 535.228 431.711 535.228 430.852C535.228 429.993 534.531 429.297 533.672 429.297ZM563.245 429.297H566.078C566.937 429.297 567.634 429.993 567.634 430.852C567.634 431.711 566.937 432.407 566.078 432.407H563.245C562.386 432.407 561.689 431.711 561.689 430.852C561.689 429.993 562.386 429.297 563.245 429.297ZM575.26 429.297H572.427C571.568 429.297 570.871 429.993 570.871 430.852C570.871 431.711 571.568 432.407 572.427 432.407H575.26C576.119 432.407 576.816 431.711 576.816 430.852C576.816 429.993 576.119 429.297 575.26 429.297ZM539.653 429.038H557.264C558.123 429.038 558.819 429.734 558.819 430.593C558.819 431.451 558.123 432.148 557.264 432.148H539.653C538.794 432.148 538.098 431.451 538.098 430.593C538.098 429.734 538.794 429.038 539.653 429.038ZM600.473 429.038H582.862C582.003 429.038 581.307 429.734 581.307 430.593C581.307 431.451 582.003 432.148 582.862 432.148H600.473C601.332 432.148 602.028 431.451 602.028 430.593C602.028 429.734 601.332 429.038 600.473 429.038ZM539.48 436.316H542.314C543.173 436.316 543.869 437.012 543.869 437.871C543.869 438.729 543.173 439.426 542.314 439.426H539.48C538.621 439.426 537.925 438.729 537.925 437.871C537.925 437.012 538.621 436.316 539.48 436.316ZM574.72 436.316H571.887C571.027 436.316 570.331 437.012 570.331 437.871C570.331 438.729 571.027 439.426 571.887 439.426H574.72C575.579 439.426 576.275 438.729 576.275 437.871C576.275 437.012 575.579 436.316 574.72 436.316ZM581.069 436.316H583.903C584.762 436.316 585.458 437.012 585.458 437.871C585.458 438.729 584.762 439.426 583.903 439.426H581.069C580.21 439.426 579.514 438.729 579.514 437.871C579.514 437.012 580.21 436.316 581.069 436.316ZM565.905 436.057H548.295C547.436 436.057 546.739 436.753 546.739 437.611C546.739 438.47 547.436 439.166 548.295 439.166H565.905C566.764 439.166 567.461 438.47 567.461 437.611C567.461 436.753 566.764 436.057 565.905 436.057ZM545.962 464.226H548.795C549.654 464.226 550.351 464.922 550.351 465.781C550.351 466.639 549.654 467.336 548.795 467.336H545.962C545.103 467.336 544.406 466.639 544.406 465.781C544.406 464.922 545.103 464.226 545.962 464.226ZM557.977 464.226H555.143C554.284 464.226 553.588 464.922 553.588 465.781C553.588 466.639 554.284 467.336 555.143 467.336H557.977C558.836 467.336 559.532 466.639 559.532 465.781C559.532 464.922 558.836 464.226 557.977 464.226ZM565.579 464.485H583.19C584.049 464.485 584.745 465.181 584.745 466.04C584.745 466.899 584.049 467.595 583.19 467.595H565.579C564.72 467.595 564.023 466.899 564.023 466.04C564.023 465.181 564.72 464.485 565.579 464.485ZM516.389 464.226H513.556C512.696 464.226 512 464.922 512 465.781C512 466.639 512.696 467.336 513.556 467.336H516.389C517.248 467.336 517.944 466.639 517.944 465.781C517.944 464.922 517.248 464.226 516.389 464.226ZM522.37 464.485H539.981C540.84 464.485 541.536 465.181 541.536 466.04C541.536 466.899 540.84 467.595 539.981 467.595H522.37C521.511 467.595 520.814 466.899 520.814 466.04C520.814 465.181 521.511 464.485 522.37 464.485ZM525.031 457.207H522.197C521.338 457.207 520.642 457.903 520.642 458.762C520.642 459.621 521.338 460.317 522.197 460.317H525.031C525.89 460.317 526.586 459.621 526.586 458.762C526.586 457.903 525.89 457.207 525.031 457.207ZM554.603 457.207H557.437C558.296 457.207 558.992 457.903 558.992 458.762C558.992 459.621 558.296 460.317 557.437 460.317H554.603C553.744 460.317 553.048 459.621 553.048 458.762C553.048 457.903 553.744 457.207 554.603 457.207ZM566.618 457.207H563.785C562.926 457.207 562.229 457.903 562.229 458.762C562.229 459.621 562.926 460.317 563.785 460.317H566.618C567.478 460.317 568.174 459.621 568.174 458.762C568.174 457.903 567.478 457.207 566.618 457.207ZM531.012 457.466H548.622C549.481 457.466 550.178 458.162 550.178 459.021C550.178 459.88 549.481 460.576 548.622 460.576H531.012C530.152 460.576 529.456 459.88 529.456 459.021C529.456 458.162 530.152 457.466 531.012 457.466ZM533.672 450.188H530.839C529.98 450.188 529.283 450.884 529.283 451.743C529.283 452.602 529.98 453.298 530.839 453.298H533.672C534.531 453.298 535.228 452.602 535.228 451.743C535.228 450.884 534.531 450.188 533.672 450.188ZM563.245 450.188H566.078C566.937 450.188 567.634 450.884 567.634 451.743C567.634 452.602 566.937 453.298 566.078 453.298H563.245C562.386 453.298 561.689 452.602 561.689 451.743C561.689 450.884 562.386 450.188 563.245 450.188ZM575.26 450.188H572.427C571.568 450.188 570.871 450.884 570.871 451.743C570.871 452.602 571.568 453.298 572.427 453.298H575.26C576.119 453.298 576.816 452.602 576.816 451.743C576.816 450.884 576.119 450.188 575.26 450.188ZM539.653 450.447H557.264C558.123 450.447 558.819 451.143 558.819 452.002C558.819 452.861 558.123 453.557 557.264 453.557H539.653C538.794 453.557 538.098 452.861 538.098 452.002C538.098 451.143 538.794 450.447 539.653 450.447ZM542.314 443.169H539.48C538.621 443.169 537.925 443.865 537.925 444.724C537.925 445.583 538.621 446.279 539.48 446.279H542.314C543.173 446.279 543.869 445.583 543.869 444.724C543.869 443.865 543.173 443.169 542.314 443.169ZM571.887 443.169H574.72C575.579 443.169 576.275 443.865 576.275 444.724C576.275 445.583 575.579 446.279 574.72 446.279H571.887C571.027 446.279 570.331 445.583 570.331 444.724C570.331 443.865 571.027 443.169 571.887 443.169ZM583.903 443.169H581.069C580.21 443.169 579.514 443.865 579.514 444.724C579.514 445.583 580.21 446.279 581.069 446.279H583.903C584.762 446.279 585.458 445.583 585.458 444.724C585.458 443.865 584.762 443.169 583.903 443.169ZM548.295 443.428H565.905C566.764 443.428 567.461 444.125 567.461 444.983C567.461 445.842 566.764 446.538 565.905 446.538H548.295C547.436 446.538 546.739 445.842 546.739 444.983C546.739 444.125 547.436 443.428 548.295 443.428Z" fill="white"/>
</g>
</g>
<path id="Vector_4" d="M491.008 442.258C491.24 442.549 491.534 442.783 491.87 442.943C492.205 443.104 492.573 443.186 492.944 443.184H628.449C628.82 443.184 629.185 443.101 629.52 442.941C629.854 442.782 630.149 442.55 630.382 442.262C630.616 441.974 630.782 441.638 630.869 441.278C630.956 440.918 630.962 440.543 630.886 440.181L628.783 430.193C628.696 429.786 628.508 429.406 628.237 429.09C627.966 428.774 627.62 428.531 627.23 428.382C626.948 428.272 626.648 428.215 626.345 428.215H495.04C494.737 428.215 494.437 428.272 494.155 428.382C493.765 428.531 493.419 428.774 493.148 429.09C492.877 429.406 492.689 429.786 492.602 430.193L490.499 440.181C490.424 440.543 490.431 440.917 490.519 441.277C490.607 441.636 490.774 441.971 491.008 442.258V442.258Z" fill="#2F2E41"/>
<path id="Vector_5" d="M621.696 432.517H624.896C625.165 432.517 625.383 432.299 625.383 432.031V430.5C625.383 430.232 625.165 430.014 624.896 430.014H621.696C621.427 430.014 621.209 430.232 621.209 430.5V432.031C621.209 432.299 621.427 432.517 621.696 432.517Z" fill="#3F3D56"/>
<path id="Vector_6" d="M613.349 432.517H616.55C616.818 432.517 617.036 432.299 617.036 432.031V430.5C617.036 430.232 616.818 430.014 616.55 430.014H613.349C613.08 430.014 612.863 430.232 612.863 430.5V432.031C612.863 432.299 613.08 432.517 613.349 432.517Z" fill="#3F3D56"/>
<path id="Vector_7" d="M605.001 432.517H608.202C608.471 432.517 608.688 432.299 608.688 432.031V430.5C608.688 430.232 608.471 430.014 608.202 430.014H605.001C604.733 430.014 604.515 430.232 604.515 430.5V432.031C604.515 432.299 604.733 432.517 605.001 432.517Z" fill="#3F3D56"/>
<path id="Vector_8" d="M596.655 432.517H599.855C600.124 432.517 600.342 432.299 600.342 432.031V430.5C600.342 430.232 600.124 430.014 599.855 430.014H596.655C596.386 430.014 596.168 430.232 596.168 430.5V432.031C596.168 432.299 596.386 432.517 596.655 432.517Z" fill="#3F3D56"/>
<path id="Vector_9" d="M588.308 432.517H591.509C591.777 432.517 591.995 432.299 591.995 432.031V430.5C591.995 430.232 591.777 430.014 591.509 430.014H588.308C588.039 430.014 587.822 430.232 587.822 430.5V432.031C587.822 432.299 588.039 432.517 588.308 432.517Z" fill="#3F3D56"/>
<path id="Vector_10" d="M579.961 432.517H583.162C583.431 432.517 583.648 432.299 583.648 432.031V430.5C583.648 430.232 583.431 430.014 583.162 430.014H579.961C579.693 430.014 579.475 430.232 579.475 430.5V432.031C579.475 432.299 579.693 432.517 579.961 432.517Z" fill="#3F3D56"/>
<path id="Vector_11" d="M571.614 432.517H574.814C575.083 432.517 575.301 432.299 575.301 432.031V430.5C575.301 430.232 575.083 430.014 574.814 430.014H571.614C571.345 430.014 571.127 430.232 571.127 430.5V432.031C571.127 432.299 571.345 432.517 571.614 432.517Z" fill="#3F3D56"/>
<path id="Vector_12" d="M563.267 432.517H566.468C566.736 432.517 566.954 432.299 566.954 432.031V430.5C566.954 430.232 566.736 430.014 566.468 430.014H563.267C562.998 430.014 562.781 430.232 562.781 430.5V432.031C562.781 432.299 562.998 432.517 563.267 432.517Z" fill="#3F3D56"/>
<path id="Vector_13" d="M554.92 432.517H558.121C558.39 432.517 558.607 432.299 558.607 432.031V430.5C558.607 430.232 558.39 430.014 558.121 430.014H554.92C554.652 430.014 554.434 430.232 554.434 430.5V432.031C554.434 432.299 554.652 432.517 554.92 432.517Z" fill="#3F3D56"/>
<path id="Vector_14" d="M546.573 432.517H549.773C550.042 432.517 550.26 432.299 550.26 432.031V430.5C550.26 430.232 550.042 430.014 549.773 430.014H546.573C546.304 430.014 546.086 430.232 546.086 430.5V432.031C546.086 432.299 546.304 432.517 546.573 432.517Z" fill="#3F3D56"/>
<path id="Vector_15" d="M538.226 432.517H541.427C541.695 432.517 541.913 432.299 541.913 432.031V430.5C541.913 430.232 541.695 430.014 541.427 430.014H538.226C537.957 430.014 537.74 430.232 537.74 430.5V432.031C537.74 432.299 537.957 432.517 538.226 432.517Z" fill="#3F3D56"/>
<path id="Vector_16" d="M529.879 432.517H533.08C533.349 432.517 533.566 432.299 533.566 432.031V430.5C533.566 430.232 533.349 430.014 533.08 430.014H529.879C529.611 430.014 529.393 430.232 529.393 430.5V432.031C529.393 432.299 529.611 432.517 529.879 432.517Z" fill="#3F3D56"/>
<path id="Vector_17" d="M521.533 432.517H524.733C525.002 432.517 525.22 432.299 525.22 432.031V430.5C525.22 430.232 525.002 430.014 524.733 430.014H521.533C521.264 430.014 521.046 430.232 521.046 430.5V432.031C521.046 432.299 521.264 432.517 521.533 432.517Z" fill="#3F3D56"/>
<path id="Vector_18" d="M513.185 432.517H516.386C516.654 432.517 516.872 432.299 516.872 432.031V430.5C516.872 430.232 516.654 430.014 516.386 430.014H513.185C512.916 430.014 512.699 430.232 512.699 430.5V432.031C512.699 432.299 512.916 432.517 513.185 432.517Z" fill="#3F3D56"/>
<path id="Vector_19" d="M504.838 432.517H508.039C508.308 432.517 508.525 432.299 508.525 432.031V430.5C508.525 430.232 508.308 430.014 508.039 430.014H504.838C504.57 430.014 504.352 430.232 504.352 430.5V432.031C504.352 432.299 504.57 432.517 504.838 432.517Z" fill="#3F3D56"/>
<path id="Vector_20" d="M496.492 432.517H499.692C499.961 432.517 500.179 432.299 500.179 432.031V430.5C500.179 430.232 499.961 430.014 499.692 430.014H496.492C496.223 430.014 496.005 430.232 496.005 430.5V432.031C496.005 432.299 496.223 432.517 496.492 432.517Z" fill="#3F3D56"/>
<path id="Vector_21" d="M621.794 436.689H624.995C625.264 436.689 625.481 436.471 625.481 436.203V434.672C625.481 434.404 625.264 434.186 624.995 434.186H621.794C621.526 434.186 621.308 434.404 621.308 434.672V436.203C621.308 436.471 621.526 436.689 621.794 436.689Z" fill="#3F3D56"/>
<path id="Vector_22" d="M613.448 436.689H616.648C616.917 436.689 617.135 436.471 617.135 436.203V434.672C617.135 434.404 616.917 434.186 616.648 434.186H613.448C613.179 434.186 612.961 434.404 612.961 434.672V436.203C612.961 436.471 613.179 436.689 613.448 436.689Z" fill="#3F3D56"/>
<path id="Vector_23" d="M605.1 436.689H608.301C608.569 436.689 608.787 436.471 608.787 436.203V434.672C608.787 434.404 608.569 434.186 608.301 434.186H605.1C604.831 434.186 604.614 434.404 604.614 434.672V436.203C604.614 436.471 604.831 436.689 605.1 436.689Z" fill="#3F3D56"/>
<path id="Vector_24" d="M596.753 436.689H599.954C600.223 436.689 600.44 436.471 600.44 436.203V434.672C600.44 434.404 600.223 434.186 599.954 434.186H596.753C596.485 434.186 596.267 434.404 596.267 434.672V436.203C596.267 436.471 596.485 436.689 596.753 436.689Z" fill="#3F3D56"/>
<path id="Vector_25" d="M588.407 436.689H591.607C591.876 436.689 592.094 436.471 592.094 436.203V434.672C592.094 434.404 591.876 434.186 591.607 434.186H588.407C588.138 434.186 587.92 434.404 587.92 434.672V436.203C587.92 436.471 588.138 436.689 588.407 436.689Z" fill="#3F3D56"/>
<path id="Vector_26" d="M580.06 436.689H583.261C583.529 436.689 583.747 436.471 583.747 436.203V434.672C583.747 434.404 583.529 434.186 583.261 434.186H580.06C579.791 434.186 579.574 434.404 579.574 434.672V436.203C579.574 436.471 579.791 436.689 580.06 436.689Z" fill="#3F3D56"/>
<path id="Vector_27" d="M571.712 436.689H574.913C575.182 436.689 575.399 436.471 575.399 436.203V434.672C575.399 434.404 575.182 434.186 574.913 434.186H571.712C571.444 434.186 571.226 434.404 571.226 434.672V436.203C571.226 436.471 571.444 436.689 571.712 436.689Z" fill="#3F3D56"/>
<path id="Vector_28" d="M563.366 436.689H566.566C566.835 436.689 567.053 436.471 567.053 436.203V434.672C567.053 434.404 566.835 434.186 566.566 434.186H563.366C563.097 434.186 562.879 434.404 562.879 434.672V436.203C562.879 436.471 563.097 436.689 563.366 436.689Z" fill="#3F3D56"/>
<path id="Vector_29" d="M555.019 436.689H558.22C558.488 436.689 558.706 436.471 558.706 436.203V434.672C558.706 434.404 558.488 434.186 558.22 434.186H555.019C554.75 434.186 554.533 434.404 554.533 434.672V436.203C554.533 436.471 554.75 436.689 555.019 436.689Z" fill="#3F3D56"/>
<path id="Vector_30" d="M546.672 436.689H549.873C550.142 436.689 550.359 436.471 550.359 436.203V434.672C550.359 434.404 550.142 434.186 549.873 434.186H546.672C546.404 434.186 546.186 434.404 546.186 434.672V436.203C546.186 436.471 546.404 436.689 546.672 436.689Z" fill="#3F3D56"/>
<path id="Vector_31" d="M538.325 436.689H541.525C541.794 436.689 542.012 436.471 542.012 436.203V434.672C542.012 434.404 541.794 434.186 541.525 434.186H538.325C538.056 434.186 537.838 434.404 537.838 434.672V436.203C537.838 436.471 538.056 436.689 538.325 436.689Z" fill="#3F3D56"/>
<path id="Vector_32" d="M529.978 436.689H533.179C533.447 436.689 533.665 436.471 533.665 436.203V434.672C533.665 434.404 533.447 434.186 533.179 434.186H529.978C529.709 434.186 529.492 434.404 529.492 434.672V436.203C529.492 436.471 529.709 436.689 529.978 436.689Z" fill="#3F3D56"/>
<path id="Vector_33" d="M521.631 436.689H524.832C525.101 436.689 525.318 436.471 525.318 436.203V434.672C525.318 434.404 525.101 434.186 524.832 434.186H521.631C521.363 434.186 521.145 434.404 521.145 434.672V436.203C521.145 436.471 521.363 436.689 521.631 436.689Z" fill="#3F3D56"/>
<path id="Vector_34" d="M513.284 436.689H516.484C516.753 436.689 516.971 436.471 516.971 436.203V434.672C516.971 434.404 516.753 434.186 516.484 434.186H513.284C513.015 434.186 512.797 434.404 512.797 434.672V436.203C512.797 436.471 513.015 436.689 513.284 436.689Z" fill="#3F3D56"/>
<path id="Vector_35" d="M504.937 436.689H508.138C508.406 436.689 508.624 436.471 508.624 436.203V434.672C508.624 434.404 508.406 434.186 508.138 434.186H504.937C504.668 434.186 504.451 434.404 504.451 434.672V436.203C504.451 436.471 504.668 436.689 504.937 436.689Z" fill="#3F3D56"/>
<path id="Vector_36" d="M496.59 436.689H499.791C500.06 436.689 500.277 436.471 500.277 436.203V434.672C500.277 434.404 500.06 434.186 499.791 434.186H496.59C496.322 434.186 496.104 434.404 496.104 434.672V436.203C496.104 436.471 496.322 436.689 496.59 436.689Z" fill="#3F3D56"/>
<path id="Vector_37" d="M552.515 441.696H584.93C585.198 441.696 585.416 441.478 585.416 441.209V439.679C585.416 439.41 585.198 439.192 584.93 439.192H552.515C552.246 439.192 552.028 439.41 552.028 439.679V441.209C552.028 441.478 552.246 441.696 552.515 441.696Z" fill="#3F3D56"/>
<path id="mao" d="M503.107 488.546L489.806 467.528L531.558 434.257L548.791 415.171C551.03 412.692 553.881 410.843 557.058 409.81C560.236 408.777 563.629 408.595 566.899 409.284C570.168 409.972 573.2 411.506 575.691 413.733C578.182 415.96 580.044 418.801 581.093 421.972C582.646 426.672 582.312 431.792 580.161 436.25C578.01 440.709 574.21 444.158 569.564 445.869L542.313 455.904L503.107 488.546Z" fill="#FFB6B6"/>
<path id="Vector_38" d="M191.003 336.149V438.305H262.595V336.149C262.597 335.415 262.362 334.699 261.926 334.107C261.49 333.516 260.876 333.079 260.174 332.862C259.843 332.753 259.496 332.699 259.148 332.703H194.46C194.007 332.702 193.558 332.791 193.139 332.963C192.719 333.136 192.338 333.39 192.017 333.71C191.696 334.03 191.441 334.41 191.267 334.829C191.093 335.247 191.003 335.696 191.003 336.149V336.149ZM218.942 371.25C218.961 369.236 219.775 367.311 221.206 365.894C222.637 364.476 224.57 363.681 226.585 363.681C228.6 363.681 230.533 364.476 231.964 365.894C233.395 367.311 234.209 369.236 234.227 371.25V383.103C234.217 385.123 233.407 387.056 231.975 388.48C230.543 389.905 228.605 390.704 226.585 390.704C224.565 390.704 222.627 389.905 221.195 388.48C219.762 387.056 218.953 385.123 218.942 383.103V371.25Z" fill="#8C8C8C"/>
<path id="Vector_39" d="M190.784 435.038V444.889C190.786 445.399 190.989 445.888 191.349 446.25C191.709 446.611 192.197 446.817 192.707 446.821H260.892C261.403 446.818 261.892 446.614 262.253 446.251C262.613 445.889 262.815 445.399 262.815 444.889V435.038H190.784Z" fill="#3F3D56"/>
<path id="Vector_40" d="M78.3779 182.239V368.76C78.3798 371.137 79.3252 373.416 81.0066 375.097C82.688 376.778 84.9679 377.723 87.3457 377.725H363.851C366.229 377.723 368.509 376.778 370.19 375.097C371.872 373.416 372.817 371.137 372.819 368.76V182.239C372.813 179.864 371.866 177.588 370.185 175.91C368.505 174.231 366.227 173.287 363.851 173.284H87.3457C84.9699 173.287 82.6922 174.232 81.0114 175.91C79.3305 177.588 78.3836 179.864 78.3779 182.239Z" fill="#8C8C8C"/>
<path id="Vector_41" d="M84.8643 184.56V366.459C84.8665 367.729 85.3721 368.947 86.2704 369.845C87.1688 370.743 88.3866 371.248 89.657 371.25H361.549C362.819 371.248 364.037 370.743 364.936 369.845C365.834 368.947 366.34 367.729 366.342 366.459V184.56C366.342 183.288 365.837 182.069 364.939 181.169C364.04 180.269 362.821 179.762 361.549 179.759H89.657C88.385 179.762 87.1661 180.269 86.2676 181.169C85.3691 182.069 84.8644 183.288 84.8643 184.56Z" fill="white"/>
<path id="Vector_42" d="M135.324 446.154C135.6 446.501 135.952 446.78 136.352 446.972C136.753 447.163 137.191 447.262 137.635 447.259H299.393C299.836 447.259 300.272 447.16 300.672 446.969C301.071 446.779 301.423 446.502 301.701 446.158C301.98 445.815 302.179 445.414 302.283 444.984C302.387 444.554 302.394 444.106 302.303 443.674L299.792 431.751C299.688 431.265 299.464 430.812 299.14 430.435C298.816 430.057 298.403 429.766 297.939 429.589C297.602 429.457 297.244 429.39 296.882 429.39H140.136C139.775 429.39 139.417 429.457 139.08 429.589C138.615 429.766 138.202 430.057 137.879 430.435C137.555 430.812 137.331 431.265 137.227 431.751L134.716 443.674C134.626 444.106 134.635 444.553 134.74 444.982C134.845 445.411 135.044 445.811 135.324 446.154Z" fill="#8C8C8C"/>
<path id="Vector_43" d="M352.726 204.816H98.3176C98.0532 204.81 97.8016 204.701 97.6166 204.512C97.4317 204.323 97.3281 204.069 97.3281 203.805C97.3281 203.54 97.4317 203.287 97.6166 203.097C97.8016 202.908 98.0532 202.799 98.3176 202.793H352.726C352.99 202.799 353.242 202.908 353.427 203.097C353.612 203.287 353.715 203.54 353.715 203.805C353.715 204.069 353.612 204.323 353.427 204.512C353.242 204.701 352.99 204.81 352.726 204.816V204.816Z" fill="#3F3D56"/>
<path id="Vector_44" d="M115.635 197.63C118.91 197.63 121.564 194.917 121.564 191.571C121.564 188.224 118.91 185.512 115.635 185.512C112.361 185.512 109.706 188.224 109.706 191.571C109.706 194.917 112.361 197.63 115.635 197.63Z" fill="#3F3D56"/>
<path id="Vector_45" d="M136.118 197.63C139.392 197.63 142.047 194.917 142.047 191.571C142.047 188.224 139.392 185.512 136.118 185.512C132.843 185.512 130.188 188.224 130.188 191.571C130.188 194.917 132.843 197.63 136.118 197.63Z" fill="#3F3D56"/>
<path id="Vector_46" d="M156.6 197.63C159.875 197.63 162.529 194.917 162.529 191.571C162.529 188.224 159.875 185.512 156.6 185.512C153.325 185.512 150.671 188.224 150.671 191.571C150.671 194.917 153.325 197.63 156.6 197.63Z" fill="#3F3D56"/>
<path id="Vector_47" d="M340.392 187.01H325.844C325.557 187.017 325.283 187.136 325.082 187.342C324.881 187.547 324.769 187.823 324.769 188.111C324.769 188.398 324.881 188.675 325.082 188.88C325.283 189.086 325.557 189.205 325.844 189.212H340.392C340.681 189.207 340.957 189.09 341.161 188.884C341.364 188.678 341.478 188.4 341.478 188.111C341.478 187.822 341.364 187.544 341.161 187.338C340.957 187.132 340.681 187.014 340.392 187.01Z" fill="#3F3D56"/>
<path id="Vector_48" d="M340.392 191.144H325.845C325.557 191.15 325.283 191.269 325.082 191.475C324.88 191.68 324.768 191.957 324.768 192.244C324.768 192.532 324.88 192.809 325.082 193.014C325.283 193.22 325.557 193.339 325.845 193.345H340.392C340.682 193.342 340.959 193.224 341.162 193.018C341.366 192.812 341.48 192.534 341.48 192.244C341.48 191.955 341.366 191.677 341.162 191.471C340.959 191.265 340.682 191.147 340.392 191.144V191.144Z" fill="#3F3D56"/>
<path id="Vector_49" d="M340.392 195.277H325.844C325.557 195.284 325.283 195.403 325.082 195.609C324.881 195.814 324.769 196.09 324.769 196.378C324.769 196.666 324.881 196.942 325.082 197.147C325.283 197.353 325.557 197.472 325.844 197.479H340.392C340.681 197.475 340.957 197.357 341.161 197.151C341.364 196.945 341.478 196.667 341.478 196.378C341.478 196.089 341.364 195.811 341.161 195.605C340.957 195.399 340.681 195.281 340.392 195.277V195.277Z" fill="#3F3D56"/>
<path id="Vector_50" d="M691.11 439.361C691.549 440.639 692.382 441.744 693.489 442.519C694.596 443.295 695.92 443.699 697.271 443.675L723.668 442.996C725.029 442.969 726.345 442.503 727.42 441.667C728.494 440.831 729.268 439.67 729.628 438.357L733.363 398.428C734.688 399.028 736.131 399.325 737.586 399.295C738.85 399.264 740.095 398.984 741.25 398.471C742.406 397.958 743.449 397.223 744.32 396.307C745.191 395.391 745.873 394.313 746.328 393.134C746.782 391.954 747 390.697 746.968 389.434C746.936 388.17 746.656 386.926 746.143 385.771C745.63 384.616 744.894 383.573 743.978 382.702C743.062 381.831 741.984 381.149 740.804 380.695C739.624 380.241 738.366 380.023 737.103 380.055C736.521 380.053 735.941 380.114 735.373 380.235C734.754 379.566 734.003 379.034 733.166 378.674C732.33 378.313 731.427 378.131 730.516 378.14L689.912 379.188C689.575 379.201 689.24 379.242 688.91 379.313C688.02 379.479 687.175 379.833 686.433 380.353C685.691 380.872 685.07 381.545 684.609 382.325C684.149 383.105 683.862 383.974 683.766 384.875C683.67 385.775 683.769 386.685 684.054 387.545L691.11 439.361ZM734.129 395.717L736.787 386.202C737.09 385.103 737.097 383.943 736.807 382.841C736.936 382.84 737.05 382.779 737.179 382.779C739.002 382.741 740.765 383.428 742.082 384.687C743.399 385.947 744.163 387.678 744.205 389.5C744.248 391.321 743.566 393.086 742.31 394.406C741.053 395.726 739.324 396.494 737.502 396.542C736.323 396.578 735.157 396.293 734.129 395.717Z" fill="#222D34"/>
<path id="Vector_51" d="M688.909 379.313C689.774 384.257 699.5 387.733 711.195 387.129C721.949 386.634 730.742 382.859 732.353 378.385C731.757 378.209 731.137 378.126 730.515 378.14L689.911 379.188C689.574 379.201 689.239 379.242 688.909 379.313V379.313Z" fill="#334248"/>
<path id="Vector_52" d="M713.338 417.42C713.392 417.406 713.442 417.384 713.488 417.354L719.221 413.603C719.29 413.558 719.347 413.496 719.387 413.423C719.426 413.35 719.447 413.269 719.447 413.186C719.447 413.104 719.426 413.022 719.387 412.95C719.347 412.877 719.291 412.815 719.221 412.77L713.263 408.869C713.208 408.832 713.147 408.807 713.083 408.795C713.018 408.783 712.952 408.783 712.888 408.796C712.824 408.809 712.763 408.835 712.708 408.872C712.654 408.909 712.608 408.956 712.572 409.011C712.536 409.066 712.511 409.127 712.499 409.191C712.487 409.256 712.487 409.322 712.501 409.386C712.514 409.45 712.54 409.511 712.578 409.565C712.615 409.619 712.662 409.665 712.717 409.701L718.039 413.186L712.943 416.52C712.844 416.585 712.772 416.682 712.738 416.795C712.705 416.908 712.712 417.029 712.76 417.137C712.807 417.245 712.891 417.333 712.997 417.384C713.103 417.436 713.224 417.449 713.338 417.42H713.338Z" fill="#FF9900"/>
<path id="Vector_53" d="M704.284 417.837C704.38 417.813 704.467 417.76 704.533 417.686C704.599 417.612 704.642 417.52 704.656 417.422C704.669 417.324 704.653 417.224 704.609 417.135C704.565 417.046 704.496 416.972 704.41 416.922L699.126 413.894L704.233 410.102C704.286 410.063 704.33 410.014 704.363 409.958C704.397 409.902 704.419 409.84 704.429 409.775C704.438 409.71 704.435 409.644 704.419 409.581C704.403 409.518 704.375 409.458 704.336 409.405C704.297 409.353 704.248 409.309 704.192 409.275C704.136 409.242 704.073 409.219 704.009 409.21C703.944 409.2 703.878 409.204 703.815 409.22C703.751 409.236 703.692 409.264 703.639 409.303L697.921 413.549C697.855 413.598 697.802 413.663 697.767 413.738C697.732 413.813 697.716 413.895 697.721 413.978C697.725 414.06 697.751 414.14 697.794 414.21C697.838 414.281 697.898 414.339 697.97 414.38L703.914 417.786C704.026 417.851 704.159 417.869 704.284 417.837V417.837Z" fill="#FF9900"/>
<path id="Vector_54" d="M712.768 420.707C712.816 420.695 712.862 420.675 712.905 420.649C712.96 420.615 713.009 420.57 713.048 420.518C713.087 420.465 713.114 420.405 713.13 420.341C713.145 420.278 713.148 420.212 713.138 420.147C713.128 420.083 713.105 420.02 713.071 419.965L704.945 406.609C704.876 406.497 704.765 406.416 704.637 406.385C704.509 406.354 704.373 406.375 704.261 406.444C704.148 406.512 704.067 406.623 704.036 406.751C704.004 406.879 704.025 407.015 704.094 407.128L712.22 420.483C712.276 420.574 712.359 420.645 712.457 420.685C712.556 420.725 712.665 420.733 712.768 420.707Z" fill="#FF9900"/>
<g id="tela_computador">
<path id="Vector_55" d="M255.919 259.798H211.886C210.09 259.798 208.634 261.254 208.634 263.049V267.35C208.634 269.145 210.09 270.601 211.886 270.601H255.919C257.715 270.601 259.171 269.145 259.171 267.35V263.049C259.171 261.254 257.715 259.798 255.919 259.798Z" fill="#FF9900"/>
<path id="Vector_56" d="M281.585 281.404H186.22C184.424 281.404 182.968 282.859 182.968 284.655V288.955C182.968 290.751 184.424 292.207 186.22 292.207H281.585C283.381 292.207 284.838 290.751 284.838 288.955V284.655C284.838 282.859 283.381 281.404 281.585 281.404Z" fill="#E6E6E6"/>
<path id="Vector_57" d="M281.585 303.01H186.22C184.424 303.01 182.968 304.465 182.968 306.261V310.561C182.968 312.357 184.424 313.813 186.22 313.813H281.585C283.381 313.813 284.838 312.357 284.838 310.561V306.261C284.838 304.465 283.381 303.01 281.585 303.01Z" fill="#E6E6E6"/>
</g>
<path id="Vector_58" d="M289.669 375.359L289.885 376.041L289.896 376.064L296.398 395.823L303.877 418.594L317.95 461.386L318.086 468.033V468.056L319.132 521.529L316.233 528.778L319.495 540.663C319.495 540.663 317.995 522.697 309.947 533.015C305.389 538.878 300.058 544.877 295.682 550.502C302.059 553.081 308.538 555.414 315.119 557.501C316.54 557.956 317.972 558.388 319.404 558.819C319.711 558.91 320.018 559.001 320.325 559.092C342.141 565.541 364.695 569.165 387.435 569.875C388.617 569.909 389.776 569.932 390.902 569.955C391.299 569.966 391.686 569.977 392.072 569.977C393.345 569.989 394.607 570 395.88 570C398.449 570 401.007 569.962 403.553 569.887C422.398 569.356 441.134 566.823 459.443 562.33C459.318 554.774 458.977 545.945 458.488 536.514C458.261 531.89 453.157 526.879 452.85 522.038C452.634 518.402 457.215 514.982 456.977 511.289C455.431 488.553 453.498 497.281 452.066 481.18C451.918 479.6 451.782 478.089 451.657 476.646C450.736 466.306 450.1 459.841 450.1 459.841L456.215 421.31L465.82 360.815L465.081 359.599L464.251 359.19L413.59 334.124L410.839 327.079C410.037 325.05 408.647 323.306 406.846 322.073C405.045 320.84 402.917 320.173 400.734 320.159L367.361 320.023C365.629 320.015 363.92 320.42 362.376 321.205C360.832 321.989 359.498 323.131 358.483 324.534L349.447 337.044L289.669 375.359Z" fill="#404040"/>
<path id="Vector_59" d="M325.645 451.864L318.086 468.033L312.925 479.077L304.048 525.539L299.603 530.255L295.796 513.562L255.941 522.408C254.634 515.147 255.591 522.653 254.784 514.688C255.012 514.461 255.25 514.233 255.489 514.006C256.125 513.415 256.66 512.859 256.648 512.325C256.194 484.85 257.558 438.092 268.947 409.765C270.731 405.14 273.083 400.755 275.949 396.709C276.176 396.403 276.392 396.096 276.608 395.789C281.86 388.437 285.179 381.199 289.885 376.052V376.041C289.914 376.017 289.941 375.991 289.964 375.961C289.982 375.953 289.997 375.941 290.01 375.927L322.337 358.792L323.724 397.743L324.713 425.741L325.645 451.864Z" fill="#404040"/>
<path id="Vector_60" d="M442.211 456.456L451.653 476.651L454.949 483.684L463.823 530.142L468.253 534.846L472.07 518.157L473.863 517.789L506.205 511.093L515.632 541.021C517.757 537.482 518.594 533.319 518.002 529.234C517.41 525.15 515.425 521.395 512.383 518.604C511.739 518.022 511.202 517.455 511.218 516.919C511.754 484.604 509.777 425.597 491.92 401.311C486.248 393.604 482.846 385.927 477.895 380.564C477.879 380.549 477.879 380.534 477.864 380.534L465.816 360.814L465.08 359.603L464.253 359.189L442.211 456.456Z" fill="#404040"/>
<g id="cabeca">
<path id="Ellipse 5" d="M385.012 310.529C409.533 310.529 429.41 290.658 429.41 266.146C429.41 241.635 409.533 221.764 385.012 221.764C360.491 221.764 340.613 241.635 340.613 266.146C340.613 290.658 360.491 310.529 385.012 310.529Z" fill="#FFB6B6"/>
<path id="Vector_61" d="M445.021 235.145C444.677 234.778 444.262 234.483 443.802 234.28C443.341 234.076 442.844 233.967 442.341 233.96L443.008 232.107C443.226 231.524 443.285 230.893 443.179 230.279C443.072 229.665 442.805 229.091 442.403 228.615C442.002 228.138 441.481 227.777 440.894 227.568C440.307 227.359 439.675 227.31 439.063 227.426L436.631 227.894L436.86 226.271C436.948 225.666 436.877 225.049 436.654 224.48C436.431 223.911 436.064 223.41 435.588 223.026C435.113 222.642 434.545 222.389 433.942 222.29C433.339 222.192 432.72 222.252 432.147 222.466C431.626 222.671 431.066 222.757 430.507 222.717C429.949 222.677 429.406 222.513 428.919 222.237C428.43 221.968 428.006 221.597 427.675 221.148C427.345 220.699 427.116 220.183 427.006 219.637L426.159 215.553L426.069 215.334C421.944 208.461 414.013 203.461 404.308 201.628C395.669 199.985 386.811 200.821 378.271 201.608C374.883 201.927 371.057 202.286 367.869 204.238C365.158 205.911 362.867 209.258 363.335 212.635C354.915 210.055 345.888 215.204 341.414 221.699C336.113 229.428 335.246 239.11 335.106 246.68C334.728 264.589 338.425 279.241 346.067 290.237C346.625 291.034 346.765 292.697 347.871 293.255L347.641 292.887C348.877 293.504 350.132 294.5 349.664 295.566C348.319 298.634 357.257 305.417 363.554 307.658C375.043 311.752 390.318 311.403 401.059 309.929L401.438 307.389C405.314 306.861 408.044 305.855 408.811 304.282C410.167 303.126 411.322 302.09 412.329 301.134L412.339 301.124C412.359 301.104 412.398 301.074 412.418 301.054C417.271 296.403 418.397 293.753 418.905 289.719C419.393 285.765 418.526 281.751 417.64 278.135C436.312 281.024 410.286 258.254 427.683 253.851C427.883 253.79 428.086 253.74 428.291 253.702C428.799 253.582 429.308 253.463 429.796 253.323C432.149 252.685 434.403 251.723 436.492 250.465C441.354 247.506 442.959 243.582 445.47 239.16C445.832 238.53 445.984 237.801 445.903 237.079C445.822 236.357 445.513 235.68 445.021 235.145V235.145Z" fill="#404040"/>
</g>
<path id="Vector_62" d="M542.043 459.616C542.033 461.359 542.013 463.8 541.933 466.818C541.923 467.236 541.913 467.664 541.903 468.102C541.774 473.651 541.644 478.302 541.435 483.472C541.425 483.83 541.415 484.179 541.395 484.537C541.116 491.749 540.678 500.146 539.921 513.443C538.516 538.006 536.064 516.82 533.603 525.435C533.484 525.864 533.354 526.372 533.235 526.969C532.862 529.138 532.233 531.254 531.361 533.274C530.056 534.051 528.711 534.798 527.386 535.545C523.609 537.647 519.773 539.669 515.907 541.591C513.735 542.667 511.553 543.723 509.361 544.739C509.012 544.898 508.673 545.058 508.334 545.207C497.109 550.398 485.54 554.81 473.709 558.415C471.397 559.112 469.095 559.789 466.764 560.417C464.333 561.094 461.901 561.732 459.44 562.329C441.131 566.823 422.396 569.357 403.551 569.889C401.01 569.969 398.449 569.999 395.879 569.999C394.603 569.999 393.348 569.989 392.072 569.979C391.684 569.979 391.295 569.969 390.907 569.959C389.781 569.929 388.615 569.909 387.439 569.879C364.7 569.17 342.146 565.545 320.33 559.092L319.404 558.823C317.969 558.385 316.544 557.957 315.119 557.498C308.543 555.417 302.063 553.086 295.679 550.506C290.807 548.544 285.991 546.439 281.231 544.191C281.188 544.179 281.147 544.159 281.112 544.131C280.115 543.673 279.109 543.195 278.112 542.707C277.983 542.637 277.843 542.568 277.704 542.498C273.987 540.685 270.31 538.786 266.673 536.8C263.614 529.778 259.31 528.434 256.64 522.258C255.862 520.423 255.301 518.505 254.966 516.541C254.966 516.521 254.956 516.501 254.956 516.471C255.235 520.176 253.77 509.897 254.946 516.431C254.936 516.312 254.926 516.182 254.916 516.033C254.886 515.674 254.846 515.236 254.786 514.688C251.369 481.33 251.588 443.181 250.103 411.746C250.003 409.714 249.9 407.768 249.794 405.909C249.764 405.291 249.724 404.684 249.685 404.086C249.754 403.907 249.834 403.718 249.924 403.538C249.943 403.487 249.966 403.437 249.993 403.389C250.023 403.327 250.056 403.267 250.093 403.21C250.113 403.18 250.143 403.14 250.163 403.11C250.177 403.076 250.194 403.043 250.213 403.01C250.302 402.871 250.402 402.722 250.512 402.582C250.561 402.522 250.601 402.472 250.651 402.423C250.685 402.372 250.726 402.325 250.771 402.283C250.801 402.235 250.838 402.192 250.88 402.154C250.92 402.114 250.96 402.064 251.01 402.014C251.031 401.983 251.058 401.956 251.09 401.935C251.168 401.844 251.255 401.761 251.349 401.686C251.704 401.359 252.084 401.059 252.484 400.789C252.624 400.7 252.773 400.61 252.913 400.51C253.917 399.91 254.974 399.403 256.072 398.996C256.45 398.857 256.829 398.727 257.237 398.588C257.387 398.548 257.526 398.498 257.676 398.448C257.895 398.379 258.114 398.309 258.343 398.259C259.479 397.921 260.705 397.632 262.03 397.363C262.19 397.333 262.359 397.303 262.528 397.263C262.767 397.213 263.017 397.174 263.266 397.134C263.605 397.074 263.953 397.014 264.302 396.954C267.261 396.486 270.619 396.138 274.326 395.909C274.675 395.889 275.023 395.869 275.372 395.849C275.781 395.829 276.189 395.809 276.608 395.789C276.956 395.769 277.315 395.759 277.674 395.749C278.023 395.729 278.381 395.719 278.75 395.709C279.756 395.679 280.793 395.65 281.849 395.63C284.858 395.57 288.027 395.59 291.355 395.66C292.899 395.699 294.473 395.739 296.088 395.809C296.197 395.809 296.297 395.819 296.397 395.819C297.802 395.869 299.216 395.928 300.671 396.008C301.688 396.058 302.714 396.108 303.74 396.168C304.707 396.227 305.683 396.287 306.67 396.357C307.437 396.397 308.204 396.456 308.981 396.506C309.639 396.556 310.297 396.606 310.954 396.646L311.851 396.705C312.339 396.745 312.827 396.775 313.326 396.825C314.422 396.915 315.518 397.004 316.634 397.094C317.74 397.193 318.866 397.293 319.992 397.393C321.118 397.492 322.253 397.602 323.389 397.711C323.509 397.721 323.619 397.731 323.728 397.741C324.764 397.851 325.801 397.95 326.847 398.06C327.086 398.08 327.335 398.1 327.574 398.13C328.572 398.23 329.589 398.347 330.595 398.454C330.904 398.487 331.212 398.52 331.522 398.554C332.31 398.639 333.087 398.714 333.882 398.807C334.928 398.927 335.994 399.036 337.03 399.176C337.837 399.265 338.644 399.355 339.452 399.454C340.717 399.604 342.002 399.763 343.288 399.933C343.776 399.992 344.264 400.052 344.753 400.122C348.419 400.58 352.126 401.088 355.892 401.616C361.602 402.423 367.401 403.299 373.24 404.246C379.089 405.192 384.971 406.191 390.887 407.244C392.381 407.513 393.876 407.781 395.38 408.06C396.058 408.19 396.736 408.319 397.413 408.449C398.569 408.658 399.725 408.877 400.881 409.096C402.036 409.315 403.192 409.534 404.348 409.764C405.723 410.033 407.108 410.301 408.483 410.57C417.541 412.363 426.548 414.276 435.337 416.278C436.781 416.606 438.226 416.945 439.661 417.274C442.531 417.941 445.374 418.619 448.19 419.306C448.968 419.485 449.735 419.674 450.502 419.864C452.415 420.342 454.328 420.82 456.212 421.308L456.54 421.397C457.925 421.736 459.281 422.085 460.636 422.443C463.834 423.28 466.979 424.127 470.072 424.983C472.124 425.551 474.154 426.125 476.16 426.706C479.159 427.573 482.098 428.45 484.958 429.336C485.666 429.555 486.373 429.774 487.071 429.983C489.163 430.631 491.226 431.288 493.228 431.946C494.823 432.464 496.377 432.992 497.912 433.52C499.446 434.047 500.951 434.575 502.425 435.103C503.372 435.442 504.309 435.8 505.245 436.139C506.59 436.637 507.916 437.135 509.211 437.633C509.61 437.783 509.998 437.942 510.387 438.091C510.636 438.201 510.875 438.291 511.114 438.39C511.582 438.579 512.061 438.759 512.519 438.948C512.987 439.127 513.446 439.317 513.904 439.516C514.352 439.695 514.811 439.884 515.249 440.074C515.698 440.253 516.136 440.442 516.574 440.641C516.943 440.791 517.302 440.95 517.651 441.109C518.358 441.418 519.066 441.727 519.753 442.046C520.092 442.205 520.431 442.354 520.769 442.514L521.547 442.872C521.656 442.932 521.766 442.982 521.875 443.032C522.124 443.151 522.384 443.281 522.633 443.4C523.211 443.669 523.779 443.958 524.337 444.227C525.084 444.606 525.811 444.984 526.509 445.353C527.216 445.731 527.904 446.11 528.561 446.478C528.671 446.538 528.771 446.598 528.88 446.657C529.03 446.737 529.179 446.827 529.329 446.906C529.837 447.195 530.325 447.494 530.813 447.783C531.77 448.371 532.677 448.948 533.523 449.526C533.713 449.656 533.892 449.785 534.081 449.904C534.709 450.353 535.307 450.791 535.865 451.239C535.865 451.249 535.865 451.249 535.875 451.249C536.064 451.389 536.244 451.538 536.423 451.678C536.573 451.817 536.732 451.937 536.881 452.076C537.4 452.524 537.878 452.952 538.316 453.391C538.463 453.526 538.603 453.669 538.735 453.819C538.793 453.867 538.846 453.92 538.894 453.978C539.093 454.178 539.273 454.377 539.442 454.576C539.468 454.603 539.492 454.633 539.512 454.666C539.751 454.945 539.97 455.223 540.18 455.502C540.279 455.642 540.389 455.781 540.478 455.921C540.598 456.09 540.718 456.269 540.817 456.439C540.907 456.578 540.987 456.728 541.066 456.867C541.278 457.226 541.458 457.603 541.604 457.993C541.716 458.257 541.806 458.53 541.873 458.809C541.949 459.074 542.006 459.344 542.043 459.616V459.616Z" fill="#222D34"/>
<path id="Vector_63" opacity="0.2" d="M542.042 459.616C542.032 461.359 542.012 463.8 541.933 466.818C541.923 467.236 541.903 467.664 541.893 468.103C541.793 472.336 541.644 477.565 541.434 483.472C541.424 483.83 541.414 484.179 541.395 484.538C541.116 491.749 540.677 500.146 539.92 513.443C538.515 538.006 536.064 516.82 533.603 525.436C526.767 521.232 519.274 516.83 511.263 512.308C509.818 511.491 508.36 510.671 506.889 509.847C490.866 500.913 472.971 491.55 454.288 482.277C453.551 481.908 452.803 481.539 452.066 481.181C409.27 460.035 362.558 439.466 324.714 425.74C317.41 423.091 310.435 420.7 303.879 418.599C290.069 414.186 278.131 411.098 268.945 409.764C259.379 408.369 252.773 408.867 250.102 411.746C250.003 409.714 249.9 407.768 249.793 405.909C249.753 405.291 249.714 404.684 249.674 404.086C249.735 403.922 249.815 403.766 249.893 403.608C249.904 403.585 249.912 403.561 249.923 403.538C249.942 403.487 249.965 403.437 249.993 403.389C250.022 403.327 250.055 403.267 250.092 403.21C250.125 403.139 250.165 403.072 250.212 403.01C250.302 402.871 250.401 402.722 250.511 402.582C250.591 402.478 250.678 402.378 250.77 402.283C250.8 402.235 250.837 402.192 250.88 402.154C250.919 402.114 250.959 402.064 251.009 402.014C251.03 401.983 251.057 401.956 251.089 401.935C251.168 401.844 251.254 401.761 251.348 401.686C251.703 401.359 252.083 401.059 252.484 400.789C252.623 400.7 252.773 400.61 252.912 400.51C253.916 399.91 254.974 399.403 256.071 398.996C256.449 398.857 256.828 398.727 257.237 398.588C257.386 398.548 257.526 398.498 257.675 398.449C257.894 398.379 258.113 398.309 258.343 398.259C259.479 397.921 260.704 397.632 262.029 397.363C262.428 397.283 262.846 397.203 263.265 397.134C263.604 397.074 263.952 397.014 264.301 396.954C267.261 396.486 270.619 396.138 274.325 395.909C274.674 395.889 275.023 395.869 275.371 395.849C275.78 395.829 276.188 395.809 276.607 395.789C276.956 395.769 277.314 395.759 277.673 395.749C278.022 395.729 278.381 395.719 278.749 395.709C279.756 395.68 280.792 395.65 281.848 395.63C284.857 395.58 288.026 395.6 291.354 395.67C292.898 395.699 294.473 395.749 296.087 395.819C296.187 395.819 296.296 395.829 296.396 395.829C297.801 395.869 299.226 395.939 300.67 396.008C301.687 396.058 302.713 396.108 303.739 396.168C304.706 396.227 305.682 396.287 306.669 396.357C307.436 396.397 308.203 396.456 308.98 396.506C309.638 396.556 310.296 396.606 310.953 396.646C311.741 396.705 312.528 396.765 313.325 396.825C314.421 396.915 315.517 397.004 316.633 397.094C317.739 397.193 318.865 397.293 319.991 397.393C321.117 397.492 322.253 397.602 323.389 397.711C323.508 397.721 323.618 397.731 323.727 397.741C324.764 397.851 325.8 397.951 326.846 398.06C332.645 398.648 338.614 399.335 344.752 400.122C348.419 400.59 352.132 401.091 355.892 401.626C361.601 402.433 367.4 403.309 373.239 404.246C379.088 405.192 384.971 406.191 390.886 407.244C392.38 407.513 393.875 407.782 395.38 408.06C397.213 408.399 399.047 408.744 400.88 409.096C402.036 409.315 403.192 409.535 404.347 409.764C405.722 410.033 407.108 410.302 408.483 410.571C417.54 412.363 426.548 414.276 435.336 416.278C436.781 416.607 438.226 416.945 439.66 417.274C442.53 417.941 445.373 418.619 448.19 419.306C448.967 419.495 449.734 419.684 450.501 419.874C452.425 420.352 454.328 420.83 456.211 421.308V421.318C456.32 421.338 456.43 421.368 456.54 421.398C457.915 421.746 459.28 422.095 460.635 422.453C463.833 423.29 466.979 424.133 470.071 424.983C472.124 425.561 474.156 426.129 476.159 426.707C479.158 427.583 482.098 428.46 484.958 429.336C485.665 429.555 486.372 429.774 487.07 429.984C489.162 430.641 491.215 431.295 493.228 431.946C494.822 432.464 496.376 432.992 497.911 433.52C499.445 434.048 500.95 434.575 502.425 435.103C503.381 435.442 504.318 435.791 505.245 436.129C506.6 436.627 507.915 437.125 509.21 437.633C509.609 437.783 509.997 437.942 510.386 438.092C511.113 438.37 511.821 438.659 512.518 438.948C512.987 439.127 513.445 439.317 513.903 439.516C514.352 439.695 514.81 439.884 515.249 440.074C515.697 440.253 516.135 440.442 516.574 440.641C516.942 440.791 517.301 440.95 517.65 441.11C518.357 441.418 519.065 441.727 519.752 442.046C520.091 442.205 520.43 442.355 520.769 442.514L521.546 442.873C521.655 442.932 521.765 442.982 521.875 443.032C522.722 443.43 523.539 443.829 524.336 444.227C525.083 444.606 525.811 444.984 526.508 445.353C527.335 445.791 528.122 446.219 528.879 446.658C529.029 446.737 529.178 446.827 529.328 446.907C529.836 447.195 530.324 447.494 530.813 447.783C531.769 448.371 532.676 448.948 533.523 449.526C534.36 450.104 535.137 450.672 535.864 451.239C535.864 451.249 535.864 451.249 535.874 451.249C536.223 451.528 536.562 451.807 536.881 452.076C537.399 452.524 537.877 452.953 538.316 453.391C538.463 453.526 538.602 453.669 538.734 453.819C538.792 453.867 538.845 453.921 538.894 453.979C539.103 454.208 539.312 454.437 539.511 454.666C539.75 454.945 539.97 455.224 540.179 455.502C540.279 455.642 540.388 455.781 540.478 455.921C540.597 456.09 540.717 456.269 540.817 456.439C540.906 456.578 540.986 456.728 541.066 456.867C541.277 457.226 541.457 457.603 541.604 457.993C541.713 458.258 541.803 458.531 541.873 458.809C541.948 459.074 542.005 459.344 542.042 459.616V459.616Z" fill="white"/>
</g>
<defs>
<clipPath id="clip0_301_403">
<rect width="784" height="570" fill="white"/>
</clipPath>
<clipPath id="clip1_301_403">
<rect x="496" y="339" width="130" height="88" rx="2" fill="white"/>
</clipPath>
</defs>
</svg>
